<svg xmlns="http://www.w3.org/2000/svg" xmlns:xlink="http://www.w3.org/1999/xlink" viewBox="0 0 459.81 470.87">
  <defs>
    <style>
      .a {
        fill: url(#a);
      }
    </style>
    <linearGradient id="a" y1="-2083.82" x2="459.81" y2="-2083.82" gradientTransform="matrix(1, 0, 0, -1, 0, -1848.38)" gradientUnits="userSpaceOnUse">
      <stop offset="0" stop-color="#34c707"/>
      <stop offset="0.47" stop-color="#57d90d"/>
      <stop offset="1" stop-color="#98ef18"/>
    </linearGradient>
  </defs>
  <path class="a" d="M228.29,470.77H381.36a77.64,77.64,0,0,0,78.17-77.09v-.78c.07-24.09.2-48.17.25-72.26q.06-24.87,0-49.73c0-4.13-.31-8.42-6.29-7-11.58,2.84-29.87,18.13-29.24,34.18,1.22,31.29.41,62.66.33,94-.07,28.87-16.58,45.35-45.32,45.35H79.32A48.32,48.32,0,0,1,67,436.41c-21.45-5.63-34-22.53-34.21-46.9-.2-31.08,0-62.16-.1-93.24,0-13.45-7.77-23.72-20.54-27.83C2.05,265.2.34,266.44.34,277.12c0,39.36.93,78.76-.31,118.09-1.11,35,32.27,76,75.2,75.66C126.25,470.51,177.27,470.77,228.29,470.77ZM231.47.29C180.72.29,130,1.13,79.23,0,38.57-.87-.21,33.39.45,78.81.67,94.6.39,110.4.37,126.19c0,24.6-.08,49.2,0,73.8,0,3.37-.91,8.15,5.28,6.84C19.48,203.89,36.19,188,35.8,173.49c-.87-32.08-.36-64.21-.23-96.31.12-27.35,17.51-44.47,44.94-44.48h227.6c24.34,0,48.68-.2,73,.12,22.65.3,41,15.07,44.71,35.83a108.49,108.49,0,0,1,1.5,18.53c.15,29,0,58,.09,87,0,13.51,6.89,23.19,19.42,27.78,10,3.65,12.91,1.75,12.93-8.63,0-39.62.13-79.24,0-118.86C459.63,34.36,425.45.37,385.25.31Q308.38.19,231.47.29ZM225,270.42c-3.46,14.16-5.12,28.5-16.7,39-2.42,2.19-6.58,4.1-1.73,8.44,13.11,11.76,30.81,12.51,44.74,1.69,3.92-3.06,5.6-5.92,1.54-10.11-10.21-10.53-11.52-24.5-14.45-37.84-.28-1.27-.6-2.75.59-3.58s2.48.07,3.51.82c4,2.9,7.83,6,11.87,8.77,22.62,15.69,53.47,1,56.39-26.41,1.68-15.82-4.47-28.36-14.76-39.32-19.48-20.75-39.33-41.15-58.76-61.94-4.82-5.16-8.21-4.62-12.62.25-7.28,8-14.57,16.15-22.56,23.45-15.52,14.18-29.25,30-42.44,46.21a51.29,51.29,0,0,0-11.12,27c-2.85,27,28.71,49,53.4,37.61,5.68-2.62,10.65-6.34,15.51-10.24C219.24,272.67,220.57,270,225,270.42Zm87.23,36.14c-.29-5.7-.46-10.87-.87-16-.14-1.7.11-4-1.86-4.78s-3.22,1.24-4.43,2.45c-4.41,4.38-8.57,9-13.08,13.28-7.27,6.87-14.07,13.68-11,25.2.69,2.55-.4,5.63-.85,8.44-4.82,30.47-33.5,50-62.64,42.77-20.79-5.18-36.78-22.4-37.69-46.84-.57-15.06-7-24.32-16.74-33.4-2.83-2.64-5.21-5.75-7.92-8.53-1.38-1.43-2.58-4-4.83-3.26-2.66.94-2.16,3.95-2,6.15,1.24,15.52.83,31-.07,46.53a20.07,20.07,0,0,0,.22,3.87c4.73,37.78,39.7,69.36,78.26,70.71,39.69,1.4,74.68-25.44,82.51-63.77,2.9-14.27,1.66-28.87,3-42.82ZM148.28,165.08v16.31c0,1.55,0,3.35,1.55,4.17,2.15,1.17,3.29-.86,4.45-2.06,6.49-6.69,12.68-13.68,19.4-20.12,4.48-4.29,6.08-8.62,5.51-15-2.64-30.11,20.78-56.45,49.87-56.82,30.61-.42,54.08,25.23,52.13,57-.2,3.35-1,6.69,1.72,9.53,7.85,8.26,15.64,16.57,23.47,24.83.88.92,1.85,2.12,3.28,1.63,1.71-.59,2.13-2.28,2-3.84-1.75-16.8.95-33.68-.1-50.37-2.27-35.91-36.89-68.95-72.38-72.18-48-4.36-81.63,29.44-88,61.35C148.11,134.51,148.9,149.86,148.28,165.08ZM376,267.19c2.59-.15,3.72-1.66,5-2.91,8.23-8.21,16.35-16.54,24.71-24.62,3.16-3,3.09-5.36,0-8.36q-12.5-12.18-24.66-24.66c-3.12-3.2-5.71-3.73-9.08-.25-8.09,8.35-16.34,16.54-24.65,24.67-3.13,3.07-2.83,5.58.15,8.51,8.49,8.32,16.83,16.79,25.27,25.16A27,27,0,0,0,376,267.19ZM115.2,235.66a18.79,18.79,0,0,0-2.09-3.37c-8.75-8.84-17.57-17.6-26.33-26.41-3.08-3.1-5.45-1.55-7.89.91-8,8.1-16,16.23-24.19,24.16-3.31,3.19-3.6,5.61-.1,9Q67,251.71,78.77,264.08c3.18,3.31,5.55,3.72,8.92.21,8.06-8.41,16.43-16.53,24.63-24.81A38.18,38.18,0,0,0,115.2,235.66Z"/>
</svg>
