<svg xmlns="http://www.w3.org/2000/svg" viewBox="0 0 444.91 392.09">
  <defs>
    <style>
      .a {
        fill: #fff;
      }
    </style>
  </defs>
  <g>
    <path class="a" d="M73.69,179c13.4-.6,24.5-11.84,24.52-24.47.05-20.31,0-40.63,0-60.94C98.3,76.69,109,66.48,126,66.71c12.48.16,25,.14,37.46.14q77.44,0,154.9-.06c18.54,0,29.9,11.45,29.93,29.88,0,19.82.45,39.66-.19,59.46-.31,9.77,8.58,18.86,16.7,20.13,5.85.9,6.41.67,6.43-5.15.07-25.31-.21-50.62.26-75.93.53-28.57-25.11-51.85-51.17-51.6-65.11.64-130.24.21-195.36.23A50.67,50.67,0,0,0,74,94.86c0,10.15-.24,20.3-.27,30.45C73.65,143.1,73.69,160.89,73.69,179Zm-.16,37.26v6c0,25.82.19,51.63-.11,77.44-.27,23.78,22.33,48.19,46.17,48.47,35.46.4,70.92.26,106.38.3q46.7.06,93.38,0c30.17-.06,50-23.5,50.94-45.34,1.19-28.93.71-57.94.91-86.92a21.23,21.23,0,0,0-.58-3.47c-1.51.31-2.64.48-3.73.78-13.13,3.56-20.38,12.93-20.38,26.31q0,29,0,58c0,17.54-10.4,27.87-28,27.87H124.61c-15.86,0-28.11-12.26-28.17-28.23-.07-20.66-.51-41.33.21-62C97,225.67,84.82,213.18,73.53,216.28Zm154.73.9c3.2,2.33,5.68,4.19,8.22,6,10,7.07,18.43,7.33,27.62.89,9.39-6.58,14-17.4,10.19-27.9a53.78,53.78,0,0,0-10.53-17.22c-12.13-13.49-25-26.31-37.46-39.5-2.42-2.56-4.14-2.49-6.53,0C207,152.79,194,165.86,181.49,179.39A55.81,55.81,0,0,0,172,193.91c-1.86,4.06-3.35,9.18-2.59,13.4,3.75,20.86,24.27,30.27,40.84,17.72,2.51-1.9,5-3.83,8-6.15-2.27,11.29-4.68,21.59-14.51,27.87,12.38,12.49,27.88,12.17,36.78-.35C231.67,239.1,230.06,228.6,228.26,217.18Zm45.51,8.3c-3.36,3.52-6.53,7.33-10.2,10.58-6.4,5.69-9.63,11.69-9.73,21.13-.24,24.5-27.39,38.84-48.16,26.07-11.52-7.09-15.84-18.32-15.35-31.61.07-1.75.27-4.08-.69-5.17-6.11-6.94-12.53-13.61-19.82-21.4-.3,3.47-.62,5.53-.63,7.58-.05,8.5.13,17,0,25.48-.34,18.51,7.61,32.83,22.47,43.16,33.27,23.12,75.38,3.58,81.93-30.8,2.7-14.17,1.19-29.13,1.57-43.74C275.13,226.55,274.69,226.33,273.77,225.48ZM169.3,165.74l1.28.46c4.57-4.51,8.88-9.35,13.79-13.46s6.43-8.64,6.26-15.05c-.47-18.64,13.81-33.4,31.63-33.65,17.61-.24,32.14,14.48,31.88,33.29-.09,6.11,1.64,10.36,5.93,14.31,4,3.71,7.58,8,11.39,11.9.84.88,1.87,1.56,3.8,3.15,0-14.75,1.65-28.56-.33-41.83-4.53-30.33-36.76-50.07-66.46-42.12A52.76,52.76,0,0,0,169.32,133C169.19,143.91,169.3,154.83,169.3,165.74Zm147.24,9.46-21,20.92,21.14,21.26,21.05-21.06ZM106.41,196l21.19,21.24,21-20.81L128,175.19Z"/>
    <path class="a" d="M73.69,179c0-18.13,0-35.92,0-53.71,0-10.15.24-20.3.27-30.45a50.67,50.67,0,0,1,51-51c65.12,0,130.25.41,195.36-.23,26.06-.25,51.7,23,51.17,51.6-.47,25.31-.19,50.62-.26,75.93,0,5.82-.58,6-6.43,5.15-8.12-1.27-17-10.36-16.7-20.13.64-19.8.22-39.64.19-59.46,0-18.43-11.39-29.87-29.93-29.88q-77.46-.06-154.9.06c-12.49,0-25,0-37.46-.14-17-.23-27.7,10-27.76,26.9-.07,20.31,0,40.63,0,60.94C98.19,167.18,87.09,178.42,73.69,179Z"/>
    <path class="a" d="M73.53,216.28c11.29-3.1,23.46,9.39,23.12,19.22-.72,20.63-.28,41.3-.21,62,.06,16,12.31,28.22,28.17,28.23H318.52c17.59,0,28-10.33,28-27.87q0-29,0-58c0-13.38,7.25-22.75,20.38-26.31,1.09-.3,2.22-.47,3.73-.78a21.23,21.23,0,0,1,.58,3.47c-.2,29,.28,58-.91,86.92-.9,21.84-20.77,45.28-50.94,45.34q-46.69.09-93.38,0c-35.46,0-70.92.1-106.38-.3-23.84-.28-46.44-24.69-46.17-48.47.3-25.81.1-51.62.11-77.44Z"/>
    <path class="a" d="M228.26,217.18c1.8,11.42,3.41,21.92,12.25,29.22-8.9,12.52-24.4,12.84-36.78.35,9.83-6.28,12.24-16.58,14.51-27.87-3,2.32-5.48,4.25-8,6.15-16.57,12.55-37.09,3.14-40.84-17.72-.76-4.22.73-9.34,2.59-13.4a55.81,55.81,0,0,1,9.49-14.52c12.52-13.53,25.55-26.6,38.28-39.94,2.39-2.51,4.11-2.58,6.53,0,12.47,13.19,25.33,26,37.46,39.5a53.78,53.78,0,0,1,10.53,17.22c3.77,10.5-.8,21.32-10.19,27.9-9.19,6.44-17.6,6.18-27.62-.89C233.94,221.37,231.46,219.51,228.26,217.18Z"/>
    <path class="a" d="M273.77,225.48c.92.85,1.36,1.07,1.36,1.28-.38,14.61,1.13,29.57-1.57,43.74-6.55,34.38-48.66,53.92-81.93,30.8-14.86-10.33-22.81-24.65-22.47-43.16.16-8.49,0-17,0-25.48,0-2,.33-4.11.63-7.58,7.29,7.79,13.71,14.46,19.82,21.4,1,1.09.76,3.42.69,5.17-.49,13.29,3.83,24.52,15.35,31.61,20.77,12.77,47.92-1.57,48.16-26.07.1-9.44,3.33-15.44,9.73-21.13C267.24,232.81,270.41,229,273.77,225.48Z"/>
    <path class="a" d="M169.3,165.74c0-10.91-.11-21.83,0-32.75a52.76,52.76,0,0,1,39.15-50.25c29.7-7.95,61.93,11.79,66.46,42.12,2,13.27.33,27.08.33,41.83-1.93-1.59-3-2.27-3.8-3.15-3.81-3.95-7.36-8.19-11.39-11.9-4.29-3.95-6-8.2-5.93-14.31.26-18.81-14.27-33.53-31.88-33.29-17.82.25-32.1,15-31.63,33.65.17,6.41-1.37,11-6.26,15.05s-9.22,8.95-13.79,13.46Z"/>
    <path class="a" d="M316.54,175.2l21.19,21.12-21.05,21.06-21.14-21.26Z"/>
    <path class="a" d="M106.41,196,128,175.19l20.62,21.24-21,20.81Z"/>
  </g>
</svg>
